<?xml version="1.0" encoding="UTF-8"?>
<svg xmlns="http://www.w3.org/2000/svg" width="600" height="600" viewBox="0 0 600 600"><circle xmlns="http://www.w3.org/2000/svg" cx="300" cy="300" r="300" fill="none" stroke="#ffffff" stroke-width="1"></circle><circle xmlns="http://www.w3.org/2000/svg" cx="300" cy="300" r="280" fill="none" stroke="#ffffff" stroke-width="1"></circle><line xmlns="http://www.w3.org/2000/svg" x1="20" y1="320" x2="154.7" y2="537.8" stroke="#ffffff" stroke-width="1" fill="none"></line><line xmlns="http://www.w3.org/2000/svg" x1="23" y1="268" x2="182" y2="534" stroke="#ffffff" stroke-width="1" fill="none"></line><line xmlns="http://www.w3.org/2000/svg" x1="403.5" y1="503.8" x2="164.6" y2="122.8" stroke="#ffffff" stroke-width="1" fill="none"></line><line xmlns="http://www.w3.org/2000/svg" x1="277.8" y1="302" x2="182" y2="534" stroke="#ffffff" stroke-width="1" fill="none"></line><line xmlns="http://www.w3.org/2000/svg" x1="295.8" y1="330" x2="200" y2="562" stroke="#ffffff" stroke-width="1" fill="none" transform="matrix(1,0,0,1,0,0)"></line><line xmlns="http://www.w3.org/2000/svg" x1="428.8999938964844" y1="490.99999694824214" x2="189.99999389648437" y2="109.9999969482422" stroke="#ffffff" stroke-width="1" fill="none" transform="matrix(1,0,0,1,0,0)"></line><line xmlns="http://www.w3.org/2000/svg" x1="393.5" y1="325.6" x2="274" y2="581" stroke="#ffffff" stroke-width="1" fill="none" transform=""></line><line xmlns="http://www.w3.org/2000/svg" x1="426.5" y1="330" x2="320" y2="559" stroke="#ffffff" stroke-width="1" fill="none" transform="matrix(1,0,0,1,0,0)"></line><line xmlns="http://www.w3.org/2000/svg" x1="320" y1="560" x2="509" y2="443" stroke="#ffffff" stroke-width="1" fill="none"></line><line xmlns="http://www.w3.org/2000/svg" x1="342" y1="578" x2="532" y2="455" stroke="#ffffff" stroke-width="1" fill="none" transform=""></line><line xmlns="http://www.w3.org/2000/svg" x1="321" y1="317.8" x2="574" y2="348" stroke="#ffffff" stroke-width="1" fill="none"></line><line xmlns="http://www.w3.org/2000/svg" x1="307" y1="294.7" x2="568.6" y2="325.6" stroke="#ffffff" stroke-width="1" fill="none" transform="matrix(1,0,0,1,0,0)"></line><line xmlns="http://www.w3.org/2000/svg" x1="435" y1="54.4" x2="568.6" y2="325.6" stroke="#ffffff" stroke-width="1" fill="none"></line><line xmlns="http://www.w3.org/2000/svg" x1="264" y1="415" x2="508" y2="443" stroke="#ffffff" stroke-width="1" fill="none" transform="matrix(1,0,0,1,0,0)"></line><line xmlns="http://www.w3.org/2000/svg" x1="273" y1="392" x2="548" y2="426" stroke="#ffffff" stroke-width="1" fill="none" transform="matrix(1,0,0,1,0,0)"></line><polyline xmlns="http://www.w3.org/2000/svg" points="164.6,122.8 150,132 158,70 206,102 190,110" fill="none" stroke="#ffffff" stroke-width="1"></polyline><path xmlns="http://www.w3.org/2000/svg" d="M 230 226 Q 183 240 160 183.6" stroke="white" fill="none" transform="matrix(1.714285501321399, 0, 0, 1.6362861394882202, -154.2856837877025, -120.42214965820312)"></path><path xmlns="http://www.w3.org/2000/svg" d="M 230 226 Q 183 240 160 183.6" stroke="white" fill="none" transform="matrix(1.2142858505249023, 0, 0, 1.387304425239563, -44.285736083984375, -84.70910094141823)"></path><polyline xmlns="http://www.w3.org/2000/svg" points="114.6,172.8 100,182 108,120 156,152 140,160" fill="none" stroke="#ffffff" stroke-width="1" transform="matrix(1,0,0,1,10,10)"></polyline><path xmlns="http://www.w3.org/2000/svg" d="M 180 130 Q 205 180 168 195" stroke="white" fill="none" transform="translate(229.99999141693115, 119.99999332427979) scale(1.0767913875450124, 1.0769403301865055) translate(-229.99999141693115, -119.99999332427979) matrix(1.638224011417151, 0, 0, 1.5552068181606273, -45.22163975294268, -82.17688910573361)"></path><path xmlns="http://www.w3.org/2000/svg" d="M 178 130 Q 212 185 172 198" stroke="white" fill="none" transform="translate(250, 109.9999863495492) scale(0.9040205998791436, 1) translate(-250, -109.9999863495492) translate(250, 109.99998378753662) scale(1, 1.0331491748044708) translate(-250, -109.99998378753662) matrix(1.3580247163772583, 0, 0, 1.8469387292861938, 32.71604537963867, -130.10203456878662)"></path><polyline xmlns="http://www.w3.org/2000/svg" points="224.6,102.80000000000001 210,112 218,50 266,82 250,90" fill="none" stroke="#ffffff" stroke-width="1" transform="matrix(1,0,0,1,24,20)"></polyline><line xmlns="http://www.w3.org/2000/svg" x1="478.3" y1="84" x2="579.6" y2="295" stroke="#ffffff" stroke-width="1" fill="none" transform="matrix(1,0,0,1,0,0)"></line></svg>